<?xml version="1.0" encoding="utf-8"?>
<!-- Generator: Adobe Illustrator 13.0.2, SVG Export Plug-In  -->
<!DOCTYPE svg PUBLIC "-//W3C//DTD SVG 1.1//EN" "http://www.w3.org/Graphics/SVG/1.1/DTD/svg11.dtd" [
	<!ENTITY ns_flows "http://ns.adobe.com/Flows/1.0/">
]>
<svg version="1.1"
	 xmlns="http://www.w3.org/2000/svg" xmlns:xlink="http://www.w3.org/1999/xlink" xmlns:a="http://ns.adobe.com/AdobeSVGViewerExtensions/3.0/"
	 x="0px" y="0px" width="107px" height="42px" viewBox="-0.064 -0.923 107 42" enable-background="new -0.064 -0.923 107 42"
	 xml:space="preserve">
<defs>
</defs>
<path fill="#231F20" d="M23.198,0.454c0.509,0.56,0.632,1.277,0.945,1.925c-0.91,1.138-2.292,1.663-3.482,2.398
	c-0.402,0.087-0.543,0.385-0.928,0.542c-0.595-0.245-1.521-0.507-1.521-1.33c-0.333-0.577-0.735-1.102-0.735-1.802
	c0.98-1.103,2.607-0.875,3.657-1.943c0.56,0,0.928-0.455,1.47-0.122C22.762,0.297,22.937,0.489,23.198,0.454"/>
<path fill="#231F20" d="M19.401,7.384c0.98-0.14,2.152-0.578,2.94,0.263c0.297,0.175,0.228,0.49,0.332,0.735
	c-0.087,0.174-0.157,0.612-0.542,0.664c-0.42-0.052-0.841,0.315-1.261,0.473c0.228,0.105,0.665,0.315,0.735,0.665
	c0.298,0.403,0,0.963,0,1.33c-0.28,0.892-1.575,0.805-1.47,1.925c-1.4,0.525-2.258,1.907-3.797,2.083
	c-0.894,0.769-1.979,1.347-2.679,2.327c-0.314-2.643,1.61-5.198,3.868-6.405c-0.141-0.613-1.067-0.91-1.067-1.593
	c-0.386-0.437-0.7-1.084-0.665-1.662c0.91-0.7,1.837-1.645,3.08-1.277C18.965,7.104,19.262,7.139,19.401,7.384"/>
<path fill="#FFB700" d="M28.012,14.839c0-0.105-0.141-0.175-0.21-0.263c-0.298,0.071-0.49-0.14-0.735,0.071
	c-0.088-0.508-0.997-0.106-1.137-0.596C26.734,13.842,27.557,14.296,28.012,14.839"/>
<polyline fill="#FFB700" points="26.873,15.049 26.804,14.647 26.944,14.786 26.873,15.049 "/>
<path fill="#FFB700" d="M28.344,15.119c-0.069,0.403-0.332,0.56-0.612,0.665l0.28-0.543c-0.019,0.07,0.018,0.105,0.052,0.141
	C28.238,15.382,28.257,15.154,28.344,15.119"/>
<path fill="#FFB700" d="M27.276,15.189c-0.018,0.122-0.21,0.21-0.14,0.385c0.14-0.088,0.42,0.14,0.402,0.332
	c0.018,0.071-0.035,0.106-0.07,0.14c-0.034-0.14-0.157-0.245-0.332-0.192l-0.07,0.052c-0.017,0.333,0.052-0.157-0.07-0.192
	c-0.717,0.087-0.192,0.857-0.927,0.875c0.034-0.21,0.192-0.263,0.332-0.35c-0.192-0.49-0.455,0.087-0.735,0l0.264-0.262
	l-0.053-0.071c0.069-0.017,0.56,0.088,0.595-0.262c0.192,0.35,0.438-0.07,0.595-0.192C27.05,15.311,27.084,15.101,27.276,15.189"/>
<path fill="#FFB700" d="M25.142,16.519c-0.087-0.122-0.07-0.262,0.07-0.333C25.177,16.274,25.123,16.379,25.142,16.519"/>
<path fill="#FFB700" d="M19.804,18.374c-0.351,0-0.683-0.035-0.927,0.28l-0.07-0.07c0.053-0.332,0.7-0.175,0.997-0.403V18.374"/>
<path fill="#FFB700" d="M17.809,20.176c-0.087,0.123-0.209,0.158-0.332,0.14C17.547,20.194,17.669,20.159,17.809,20.176"/>
<g>
	<g>
		<path fill="#FFB700" d="M14.134,20.719c-0.141-0.017-0.351,0.052-0.473-0.07c0.122-0.158,0.351,0.017,0.473-0.14V20.719"/>
		<g>
			<g>
				<path fill="#FFB700" d="M12.873,13.509c-0.418,1.505-1.805,1.065-2.925,1.747c0.035,0.123-0.39,0.167-0.687,0.219l-0.344,0.153
					c-1.226,0.158-1.959,0.961-3.045,1.486c0.019,0.455-0.611,0.21-0.875,0.473c-0.14,0.402-0.856,0.227-0.664,0.734
					c-0.508,0.35-1.207,0.665-1.399,1.26c0.577,0.508,1.382,0.403,2.063,0.595c2.188,0.193,4.061-0.052,6.073-0.07
					c0.595-0.105,1.172-0.315,1.802-0.332v0.07c0.474,0.14,0.771-0.385,1.261-0.193c0.35-0.385,0.998-0.052,1.331-0.472
					c0.646-0.228,1.557-0.07,2.064-0.403v0.14c-0.228-0.087-0.141,0.176-0.263,0.263c0.122,0.122,0.315,0.052,0.473,0.07
					c0.699-0.77,1.313,0.21,1.994-0.665c0.263-0.368,0.7-0.577,1.138-0.665l0.141,0.192c0.21-0.647,0.927-0.385,1.33-0.735
					c-0.28,0.053-0.315,0.508-0.735,0.333c0.262,0.507-0.438,0.525-0.595,0.805c-0.141,0.035-0.525,0.017-0.473-0.262
					c-0.192,0.174-0.157,0.752-0.543,0.524c-0.437,0.14-1.067,0.263-1.522,0.543c-0.542,0.07-1.259,0.385-1.872,0.262
					c-0.49,0.263-0.998,0.193-1.54,0.403c-0.7,0.175-1.715,0.14-2.328,0.525c-0.21-0.018-0.122,0.28-0.332,0.28
					c0.192,0.017,0.157,0.612,0.472,0.332c-0.14,0.035-0.243,0.21-0.332,0c-0.279,0.071-0.595,0.455-0.875,0.123
					c-0.438,0.245-1.015,0.087-1.522,0.14v-0.14c0.368,0.297,0.228-0.245,0.525-0.333v-0.192c-0.857,0.297-1.785,0.192-2.66,0.595
					c0.263,0.525-0.49,0.122-0.665,0.332c-0.034-0.105,0.07-0.14,0.123-0.192c-1.12-0.35-1.681,0.385-2.923,0.122l-0.14,0.263
					c-0.561-0.315-1.277,0.35-1.803-0.053c-0.63-0.105-1.417-0.28-1.662-0.875c-0.228,0.088-0.263-0.122-0.333-0.262
					c0.122-0.595-0.945-0.823-0.473-1.47c-0.35-0.403,0.088-0.805,0.141-1.19c0.087-0.07,0.087-0.175,0.122-0.28l0.14,0.14
					c0.264-0.21,0.299-0.525,0.403-0.805l0.804-0.858c-0.017,0.053,0.019,0.088,0.054,0.123c0.122,0,0.191-0.123,0.279-0.192
					c-0.104-0.316,0.122-0.403,0.333-0.543c0.157-0.035,0.385,0.087,0.454-0.122c-0.174-0.421,0.562,0.017,0.543-0.473
					c0.577,0.052,0.717-0.665,1.33-0.525c0.771-0.823,1.96-0.893,2.87-1.54C9.164,12.389,11.911,11.199,12.873,13.509
					 M11.212,20.719h-0.21l0.21,0.122V20.719z M10.669,21.244h0.192c0.123-0.07,0.123-0.175,0.21-0.263
					C10.896,20.981,10.722,21.104,10.669,21.244z"/>
			</g>
		</g>
	</g>
</g>
<path fill="#FFB700" d="M7.205,21.576c-0.036,0.088-0.141,0.07-0.193,0.07v-0.14C7.064,21.506,7.169,21.489,7.205,21.576"/>
<path fill="#FFB700" d="M24.664,16.491c-0.105,0.105-0.28,0.315-0.402,0.14h-0.07C24.297,16.579,24.453,16.439,24.664,16.491"/>
<path fill="#231F20" d="M14.344,25.322c0.246,1.347-0.402,2.484-1.137,3.517l-0.334,0.07l0.071-0.07l-0.071-0.052
	c-0.576,0.752-1.295,1.365-1.47,2.327c-0.104,0.035-0.191,0.052-0.262,0.14c-0.175-0.578-0.543-1.277-0.21-1.802
	c-0.122-1.663,0.63-2.835,1.4-4.2c0.489-0.316,0.996-1.173,1.539-0.736L14.344,25.322"/>
<path fill="#231F20" d="M11.212,35.979c0.21,0.455,0.14,0.858,0.053,1.33c-0.351,0.018-0.666-0.035-0.928-0.192l-0.07,0.069
	c-0.351-0.227-0.683-0.489-0.735-0.944c-0.158-0.613,0.63-0.49,0.735-0.998C10.599,35.367,10.948,35.717,11.212,35.979"/>
<path fill="#231F20" d="M31.754,29.626v2.567c-0.653,0.348-3.234,0.58-3.857,0.58c-3.523,0-4.698-1.856-4.698-5.22
	c0-3.48,1.493-5.148,5.003-5.148c1.333,0,2.262,0.189,3.553,0.566v2.335h-0.783l-0.044-0.421c-0.203-1.624-0.929-1.943-2.726-1.943
	c-2.683,0-3.494,1.957-3.494,4.364c0,2.639,0.479,4.974,3.566,4.974c2.233,0,2.465-0.624,2.653-2.654H31.754"/>
<path fill="#231F20" d="M35.656,27.691c0-3.668,1.189-5.176,4.959-5.176c3.771,0,4.959,1.508,4.959,5.176
	c0,3.64-1.015,5.191-4.959,5.191C36.86,32.882,35.656,31.345,35.656,27.691 M37.136,27.691c0,2.436,0.565,4.684,3.479,4.684
	s3.48-2.248,3.48-4.684c0-2.437-0.566-4.669-3.48-4.669S37.136,25.255,37.136,27.691z"/>
<path fill="#231F20" d="M58.218,24.213h-0.026l-3.536,8.396c-0.064,0.16-0.222,0.16-0.301,0.015l-3.536-8.25h-0.025v6.8
	c0,0.928,0.234,0.986,1.199,0.986v0.493c-0.508-0.014-1.017-0.014-1.525-0.029c-0.51,0.015-1.019,0.015-1.527,0.029v-0.493
	c0.966,0,1.2-0.058,1.2-0.986v-7.105c0-0.942-0.274-0.986-1.2-0.986v-0.493c0.393,0.015,0.771,0.015,1.162,0.029
	c0.391-0.014,0.77-0.014,1.161-0.029l3.549,8.077l3.485-8.077c0.391,0.015,0.783,0.015,1.174,0.029
	c0.392-0.014,0.783-0.014,1.174-0.029v0.493c-0.965,0-1.252,0.029-1.252,0.986v7.105c0,0.943,0.235,0.986,1.252,0.986v0.493
	c-0.613-0.014-1.226-0.014-1.839-0.029c-0.614,0.015-1.228,0.015-1.84,0.029v-0.493c1.017,0,1.252-0.043,1.252-0.986V24.213"/>
<path fill="#231F20" d="M67.425,31.162c0,0.783-0.016,0.986,1.391,0.986v0.493c-0.681-0.014-1.362-0.014-2.044-0.029
	c-0.681,0.015-1.363,0.015-2.044,0.029v-0.493c1.406,0,1.392-0.203,1.392-0.986v-7.105c0-0.783,0.015-0.986-1.392-0.986v-0.493
	c0.681,0.015,1.363,0.015,2.044,0.029c1.001-0.014,2.001-0.014,3.002-0.029c1.841-0.043,2.871,0.522,2.871,2.538
	c0,2.726-1.552,3.045-3.886,3.045h-1.334V31.162 M67.425,27.653h0.71c1.813,0,3.06-0.087,3.06-2.276c0-2.103-0.711-2.277-2.35-2.277
	h-1.42V27.653z"/>
<path fill="#231F20" d="M80.825,22.623l3.046,7.96c0.158,0.421,0.535,1.668,1.682,1.581v0.493c-0.667-0.015-1.32-0.015-1.986-0.029
	c-0.667,0.014-1.334,0.014-2.001,0.029v-0.522c0,0,1.261,0.029,1.261-0.566c0-0.29-0.13-0.536-0.231-0.797l-0.942-2.422h-3.479
	l-0.899,2.509c-0.058,0.188-0.131,0.449-0.131,0.638c0,0.652,0.725,0.638,1.204,0.638v0.522c-0.566-0.015-1.146-0.015-1.712-0.029
	c-0.565,0.014-1.146,0.014-1.71,0.029v-0.522c0.491-0.058,0.754,0,1.102-0.421c0.188-0.232,0.595-1.232,0.724-1.522l3.118-7.569
	H80.825 M81.405,27.654l-1.45-3.726l-1.595,3.871h3.104L81.405,27.654z"/>
<path fill="#231F20" d="M92.759,27.034c1.377,0.493,2.595,1.116,2.595,2.798c0,2.364-1.971,2.987-3.972,2.987
	c-1.045,0-2.132-0.174-3.132-0.623v-2.625h0.971c0.145,1.421-0.217,2.755,2.349,2.755c1.276,0,2.48-0.58,2.48-2.03
	c0-1.61-1.567-1.972-2.813-2.407c-1.363-0.493-2.581-0.986-2.581-2.668c0-1.928,1.566-2.769,3.307-2.769
	c0.985,0,1.928,0.159,2.985,0.551v2.378h-0.812c-0.145-1.117,0.117-2.378-2.116-2.378c-1.16,0-2.104,0.507-2.104,1.783
	c0,0.856,0.406,1.334,1.176,1.653L92.759,27.034"/>
<path fill="#231F20" d="M103.775,26.865c1.378,0.493,2.596,1.117,2.596,2.799c0,2.363-1.972,2.987-3.973,2.987
	c-1.045,0-2.132-0.174-3.132-0.624v-2.624h0.971c0.146,1.421-0.217,2.755,2.35,2.755c1.275,0,2.479-0.58,2.479-2.03
	c0-1.61-1.565-1.972-2.812-2.407c-1.364-0.493-2.581-0.986-2.581-2.668c0-1.929,1.564-2.77,3.306-2.77
	c0.986,0,1.928,0.16,2.987,0.551v2.378h-0.813c-0.145-1.116,0.116-2.378-2.117-2.378c-1.161,0-2.103,0.508-2.103,1.784
	c0,0.855,0.406,1.334,1.175,1.653L103.775,26.865"/>
<path fill="#231F20" d="M49.082,39.427c0-0.368-0.006-0.397-0.689-0.397v-0.196c0.414,0.006,0.684,0.006,0.954,0.012
	c0.271-0.006,0.541-0.006,0.702-0.012v0.19c-0.438,0.022-0.448,0.104-0.448,0.403v0.534c0,0.115,0.005,0.173,0.022,0.23
	c-0.529,0.172-1.053,0.253-1.575,0.253c-1.386,0-1.868-0.707-1.868-2.029c0-1.357,0.568-2.052,2.012-2.081
	c0.529,0,0.897,0.074,1.409,0.224v0.925h-0.34c-0.063-0.799-0.271-0.938-1.069-0.938c-1.167-0.034-1.414,0.909-1.414,1.892
	c0,1.063,0.271,1.799,1.438,1.799c0.247,0,0.581-0.057,0.867-0.224V39.427"/>
<path fill="#231F20" d="M55.902,39.812c0,0.31-0.006,0.39,0.551,0.39v0.196c-0.27-0.006-0.539-0.006-0.81-0.011
	c-0.271,0.005-0.541,0.005-0.812,0.011v-0.196c0.559,0,0.553-0.08,0.553-0.39v-2.817c0-0.311,0.006-0.391-0.553-0.391v-0.196
	c0.271,0.006,0.541,0.006,0.812,0.012c0.126,0,0.81-0.012,1.086-0.012c0.719,0,1.242,0.046,1.242,0.897
	c0,0.673-0.392,0.943-1.017,1.012c0.172,0.282,0.85,1.293,1.017,1.512c0.155,0.195,0.253,0.351,0.558,0.373v0.196
	c-0.138-0.006-0.275-0.006-0.414-0.011c-0.138,0.005-0.281,0.005-0.42,0.011c-0.391-0.627-1.195-1.897-1.374-1.96
	c-0.138-0.046-0.275-0.04-0.419-0.04V39.812 M55.902,38.202c0.091,0.017,0.185,0.012,0.275,0.012c0.627,0,1.213-0.023,1.213-0.817
	c0-0.626-0.247-0.782-0.839-0.782c-0.22,0-0.431,0.012-0.649,0.018V38.202z"/>
<path fill="#231F20" d="M63.405,38.386c0-1.455,0.473-2.052,1.968-2.052c1.493,0,1.966,0.597,1.966,2.052
	c0,1.443-0.403,2.058-1.966,2.058C63.884,40.444,63.405,39.835,63.405,38.386 M63.992,38.386c0,0.966,0.225,1.857,1.381,1.857
	c1.154,0,1.379-0.891,1.379-1.857c0-0.966-0.225-1.851-1.379-1.851C64.217,36.535,63.992,37.42,63.992,38.386z"/>
<path fill="#231F20" d="M73.433,39.093c-0.011,0.765,0.31,1.144,1.098,1.144c0.845,0,1.248-0.345,1.248-1.23v-2.012
	c0-0.34-0.006-0.391-0.621-0.391v-0.196c0.236,0.006,0.478,0.006,0.712,0.012c0.236-0.006,0.479-0.006,0.713-0.012v0.196
	c-0.527,0-0.517,0.098-0.517,0.391v2.006c0,1.121-0.608,1.443-1.713,1.443c-0.897,0-1.437-0.362-1.437-1.288v-2.161
	c0-0.299,0.011-0.391-0.523-0.391v-0.196c0.241,0.006,0.511,0.006,0.782,0.012c0.27-0.006,0.54-0.006,0.81-0.012v0.196
	c-0.558,0-0.552,0.08-0.552,0.391V39.093"/>
<path fill="#231F20" d="M82.477,39.812c0,0.31-0.006,0.39,0.552,0.39v0.196c-0.27-0.006-0.541-0.006-0.811-0.011
	c-0.271,0.005-0.54,0.005-0.812,0.011v-0.196c0.559,0,0.553-0.08,0.553-0.39v-2.817c0-0.311,0.006-0.391-0.553-0.391v-0.196
	c0.271,0.006,0.541,0.006,0.812,0.012c0.396-0.006,0.793-0.006,1.189-0.012c0.73-0.017,1.14,0.207,1.14,1.007
	c0,1.08-0.616,1.207-1.541,1.207h-0.529V39.812 M82.477,38.421h0.282c0.718,0,1.212-0.035,1.212-0.903
	c0-0.834-0.281-0.903-0.932-0.903h-0.563V38.421z"/>
<path fill="#FFB700" d="M22.823,18.029c-0.14-0.018-0.35,0.052-0.472-0.07c0.122-0.158,0.35,0.017,0.472-0.14V18.029"/>
<path fill="#FFB700" d="M23.823,17.069c-0.35,0-0.682-0.035-0.927,0.28l-0.07-0.07c0.053-0.333,0.7-0.175,0.997-0.403V17.069"/>
<path fill="#FFB700" d="M25.073,17.029c-0.14-0.018-0.35,0.052-0.472-0.07c0.122-0.158,0.35,0.017,0.472-0.14V17.029"/>
<polyline fill="#FFB700" points="24.198,17.381 24.129,16.979 24.269,17.119 24.198,17.381 "/>
</svg>
