<svg width="24" height="22" viewBox="0 0 24 22" fill="none" xmlns="http://www.w3.org/2000/svg">
<path d="M22.7501 3.41667H20.3335M22.7501 10.6667H16.7085M22.7501 17.9167H16.7085M5.83346 20.3333V12.5531C5.83346 12.3018 5.83346 12.1761 5.80878 12.0559C5.7869 11.9493 5.7507 11.8461 5.70117 11.7491C5.64533 11.6399 5.56682 11.5417 5.4098 11.3454L1.42378 6.36291C1.26675 6.16664 1.18825 6.06849 1.13241 5.95921C1.08288 5.86226 1.04668 5.75905 1.0248 5.65241C1.00012 5.5322 1.00012 5.40652 1.00012 5.15516V2.93334C1.00012 2.25661 1.00012 1.91824 1.13182 1.65977C1.24767 1.43241 1.43252 1.24756 1.65988 1.1317C1.91836 1.00001 2.25673 1.00001 2.93346 1.00001H13.5668C14.2436 1.00001 14.5819 1.00001 14.8404 1.1317C15.0678 1.24756 15.2525 1.43241 15.3684 1.65977C15.5001 1.91824 15.5001 2.25661 15.5001 2.93334V5.15516C15.5001 5.40652 15.5001 5.5322 15.4755 5.65241C15.4536 5.75905 15.4174 5.86226 15.3678 5.95921C15.312 6.06849 15.2334 6.16664 15.0765 6.36291L11.0904 11.3454C10.9335 11.5417 10.8549 11.6399 10.7991 11.7491C10.7496 11.8461 10.7133 11.9493 10.6914 12.0559C10.6668 12.1761 10.6668 12.3018 10.6668 12.5531V16.7083L5.83346 20.3333Z" stroke="black" stroke-width="2" stroke-linecap="round" stroke-linejoin="round"/>
</svg>
