<svg width="18" height="24" viewBox="0 0 18 24" fill="none" xmlns="http://www.w3.org/2000/svg">
<path fill-rule="evenodd" clip-rule="evenodd" d="M8.80154 11.0019C7.58619 11.0019 6.60115 10.0169 6.60115 8.80154C6.60115 7.58619 7.58619 6.60115 8.80154 6.60115C10.0169 6.60115 11.0019 7.58619 11.0019 8.80154C11.0019 10.0169 10.0169 11.0019 8.80154 11.0019ZM8.80154 5.13423C6.77645 5.13423 5.13423 6.77572 5.13423 8.80154C5.13423 10.8274 6.77645 12.4688 8.80154 12.4688C10.8266 12.4688 12.4688 10.8274 12.4688 8.80154C12.4688 6.77572 10.8266 5.13423 8.80154 5.13423ZM8.80154 21.2704C7.58179 21.277 1.46692 11.8681 1.46692 8.80154C1.46692 4.75136 4.75063 1.46692 8.80154 1.46692C12.8524 1.46692 16.1362 4.75136 16.1362 8.80154C16.1362 11.8271 10.0022 21.277 8.80154 21.2704ZM8.80154 0C3.94089 0 0 3.94089 0 8.80154C0 12.482 7.33828 23.4788 8.80154 23.4708C10.2421 23.4788 17.6031 12.4322 17.6031 8.80154C17.6031 3.94089 13.6622 0 8.80154 0Z" fill="#216EC4"/>
</svg>
