<svg width="26" height="21" viewBox="0 0 26 21" fill="none" xmlns="http://www.w3.org/2000/svg">
<path fill-rule="evenodd" clip-rule="evenodd" d="M7.33595 9.66994C6.32298 9.66994 5.50196 8.84892 5.50196 7.83595C5.50196 6.82298 6.32298 6.00196 7.33595 6.00196C8.34892 6.00196 9.16994 6.82298 9.16994 7.83595C9.16994 8.84892 8.34892 9.66994 7.33595 9.66994ZM7.33595 4.7793C5.64807 4.7793 4.2793 6.14746 4.2793 7.83595C4.2793 9.52444 5.64807 10.8926 7.33595 10.8926C9.02383 10.8926 10.3926 9.52444 10.3926 7.83595C10.3926 6.14746 9.02383 4.7793 7.33595 4.7793ZM7.33595 18.2285C6.31931 18.234 1.22266 10.3919 1.22266 7.83595C1.22266 4.46019 3.95958 1.72266 7.33595 1.72266C10.7123 1.72266 13.4492 4.46019 13.4492 7.83595C13.4492 10.3577 8.33669 18.234 7.33595 18.2285ZM7.33595 0.5C3.28467 0.5 0 3.78467 0 7.83595C0 10.9036 6.11635 20.0693 7.33595 20.0625C8.5366 20.0693 14.6719 10.862 14.6719 7.83595C14.6719 3.78467 11.3872 0.5 7.33595 0.5Z" fill="black"/>
<path d="M22.1871 0.146441C21.9918 -0.0488213 21.6753 -0.0488213 21.48 0.146441L18.298 3.32842C18.1027 3.52368 18.1027 3.84027 18.298 4.03553C18.4933 4.23079 18.8099 4.23079 19.0051 4.03553L21.8335 1.2071L24.662 4.03553C24.8572 4.23079 25.1738 4.23079 25.3691 4.03553C25.5643 3.84027 25.5643 3.52368 25.3691 3.32842L22.1871 0.146441ZM21.8335 19.248H22.3335V0.499994H21.8335H21.3335V19.248H21.8335Z" fill="black"/>
</svg>
