<svg width="23" height="18" viewBox="0 0 23 18" fill="none" xmlns="http://www.w3.org/2000/svg">
<path d="M21.7795 7.31401C22.1713 7.31401 22.525 7.07971 22.6776 6.71888C22.8303 6.35819 22.7524 5.94114 22.4796 5.65993L17.2785 0.296318C17.0949 0.106908 16.8423 0 16.5784 0C16.3146 0 16.0621 0.106908 15.8784 0.296318L10.6773 5.65993C10.4046 5.94114 10.3266 6.35819 10.4793 6.71888C10.632 7.07971 10.9857 7.31401 11.3774 7.31401H15.6032V16.5784C15.6032 17.117 16.0399 17.5536 16.5784 17.5536C17.117 17.5536 17.5536 17.117 17.5536 16.5784V7.31401H21.7795Z" fill="black"/>
<path opacity="0.5" d="M11.3774 10.2396C11.7691 10.2396 12.1228 10.4739 12.2755 10.8348C12.4281 11.1954 12.3502 11.6124 12.0774 11.8937L6.87639 17.2573C6.69273 17.4468 6.44014 17.5536 6.1763 17.5536C5.91247 17.5536 5.65988 17.4468 5.4762 17.2573L0.275123 11.8937C0.00244323 11.6124 -0.075521 11.1954 0.0771566 10.8348C0.229834 10.4739 0.583521 10.2396 0.975227 10.2396H5.2011V0.975202C5.2011 0.436617 5.63771 0 6.1763 0C6.71489 0 7.15151 0.436617 7.15151 0.975202V10.2396H11.3774Z" fill="black"/>
</svg>
