<svg width="26" height="20" viewBox="0 0 26 20" fill="none" xmlns="http://www.w3.org/2000/svg">
<path fill-rule="evenodd" clip-rule="evenodd" d="M7.33595 9.16994C6.32298 9.16994 5.50196 8.34892 5.50196 7.33595C5.50196 6.32298 6.32298 5.50196 7.33595 5.50196C8.34892 5.50196 9.16994 6.32298 9.16994 7.33595C9.16994 8.34892 8.34892 9.16994 7.33595 9.16994ZM7.33595 4.2793C5.64807 4.2793 4.2793 5.64746 4.2793 7.33595C4.2793 9.02444 5.64807 10.3926 7.33595 10.3926C9.02383 10.3926 10.3926 9.02444 10.3926 7.33595C10.3926 5.64746 9.02383 4.2793 7.33595 4.2793ZM7.33595 17.7285C6.31931 17.734 1.22266 9.89191 1.22266 7.33595C1.22266 3.96019 3.95958 1.22266 7.33595 1.22266C10.7123 1.22266 13.4492 3.96019 13.4492 7.33595C13.4492 9.85768 8.33669 17.734 7.33595 17.7285ZM7.33595 0C3.28467 0 0 3.28467 0 7.33595C0 10.4036 6.11635 19.5693 7.33595 19.5625C8.5366 19.5693 14.6719 10.362 14.6719 7.33595C14.6719 3.28467 11.3872 0 7.33595 0Z" fill="black"/>
<path d="M21.48 19.1015C21.6753 19.2968 21.9918 19.2968 22.1871 19.1015L25.3691 15.9195C25.5643 15.7243 25.5643 15.4077 25.3691 15.2124C25.1738 15.0172 24.8572 15.0172 24.662 15.2124L21.8335 18.0409L19.0051 15.2124C18.8099 15.0172 18.4933 15.0172 18.298 15.2124C18.1027 15.4077 18.1027 15.7243 18.298 15.9195L21.48 19.1015ZM21.8335 0L21.3335 0V18.748H21.8335H22.3335V0L21.8335 0Z" fill="black"/>
</svg>
